<svg width="24" height="25" viewBox="0 0 24 25" fill="none" xmlns="http://www.w3.org/2000/svg">
<path d="M19.0621 21.013C17.1077 22.9673 12.1028 21.131 7.88327 16.9114C3.66372 12.6919 1.82739 7.68695 3.7817 5.73263L5.06847 4.44586C5.9568 3.55753 7.42054 3.58102 8.33784 4.49831L10.3309 6.4914C11.2482 7.40869 11.2717 8.87244 10.3834 9.76076L10.107 10.0371C9.62737 10.5168 9.58045 11.2905 10.0261 11.8305C10.456 12.3515 10.9194 12.8703 11.4219 13.3728C11.9244 13.8753 12.4432 14.3387 12.9641 14.7686C13.5042 15.2142 14.2779 15.1673 14.7575 14.6877L15.0339 14.4113C15.9222 13.523 17.386 13.5465 18.3033 14.4638L20.2964 16.4568C21.2137 17.3741 21.2371 18.8379 20.3488 19.7262L19.0621 21.013Z" stroke="#500724" stroke-width="1.5"/>
<path d="M17.6264 9.79453C17.3825 9.19935 17.0188 8.64173 16.5356 8.15845C16.0796 7.70247 15.5574 7.353 14.9999 7.11004" stroke="#500724" stroke-width="1.5" stroke-linecap="round"/>
<path d="M15 3.70711C16.3347 4.19061 17.5869 4.96735 18.6569 6.03735C19.7537 7.13419 20.5424 8.42253 21.023 9.79483" stroke="#500724" stroke-width="1.5" stroke-linecap="round"/>
</svg>
